<?xml version="1.0" encoding="UTF-8"?>
<svg width="6.35mm" height="6.35mm" version="1.1" viewBox="0 0 6.35 6.35" xmlns="http://www.w3.org/2000/svg" xmlns:cc="http://creativecommons.org/ns#" xmlns:dc="http://purl.org/dc/elements/1.1/" xmlns:rdf="http://www.w3.org/1999/02/22-rdf-syntax-ns#">
 <metadata>
  <rdf:RDF>
   <cc:Work rdf:about="">
    <dc:format>image/svg+xml</dc:format>
    <dc:type rdf:resource="http://purl.org/dc/dcmitype/StillImage"/>
    <dc:title/>
   </cc:Work>
  </rdf:RDF>
 </metadata>
 <path d="m2.8678 0.84461h1.229c1.0206 0 2.2532 1.0398 2.2532 2.331s-1.2327 2.331-2.2532 2.331h-1.229c-0.11312 0-0.20484-0.11597-0.20484-0.259v-4.1441c0-0.14304 0.09172-0.259 0.20484-0.259z" fill="#f75521" stroke-width=".028792"/>
 <path d="m2.8678 4.4706h1.229c0.87976 0 1.917-0.7727 2.1865-1.813 0.04314 0.16651 0.0667 0.33984 0.0667 0.51801 0 1.2912-1.2327 2.331-2.2532 2.331h-1.229c-0.11312 0-0.20484-0.11597-0.20484-0.259v-1.036c0 0.14307 0.09172 0.259 0.20484 0.259z" fill="#d02c00" stroke-width=".028792"/>
 <g fill="#f75622" stroke-width=".028792">
  <path d="m0.20484 3.4346h1.229c0.11312 0 0.20484-0.11597 0.20484-0.259 0-0.14303-0.09172-0.259-0.20484-0.259h-1.229c-0.11312 0-0.20484 0.11597-0.20484 0.259 0 0.14303 0.09172 0.259 0.20484 0.259z"/>
  <path d="m1.6388 2.3986c0.07661 0 0.15007-0.05459 0.18512-0.14786 0.04857-0.12918 0.0051-0.28371-0.09704-0.34512l-1.0771-0.64751c-0.10224-0.06138-0.22443-0.0064-0.27292 0.1227-0.04857 0.12918-0.0051 0.28371 0.09704 0.34512l1.0771 0.64751c0.0284 0.01706 0.05835 0.02516 0.0878 0.02516z"/>
  <path d="m2.0488 1.6396c0.03475 0 0.06995-0.0112 0.10221-0.03474 0.09797-0.07152 0.13156-0.22993 0.07497-0.3538l-0.5121-1.1215c-0.05654-0.1239-0.18185-0.16638-0.27981-0.09479-0.09796 0.07152-0.13156 0.22993-0.07497 0.3538l0.5121 1.1215c0.03795 0.08308 0.1068 0.12953 0.1776 0.12953z"/>
  <path d="m1.5358 6.3506c0.07082 0 0.13965-0.04646 0.1776-0.12953l0.5121-1.1215c0.05659-0.12387 0.02299-0.28228-0.07497-0.3538-0.09804-0.07155-0.22327-0.02904-0.27981 0.09479l-0.5121 1.1215c-0.05659 0.12387-0.02299 0.28228 0.07497 0.3538 0.03226 0.02354 0.06749 0.03474 0.10221 0.03474z"/>
  <path d="m0.56184 5.1176c0.02947 0 0.0594-0.0081 0.0878-0.025149l1.0771-0.64751c0.10219-0.06142 0.14564-0.21594 0.09704-0.34512-0.04855-0.12921-0.17081-0.18415-0.27292-0.1227l-1.0771 0.64751c-0.10219 0.06142-0.14564 0.21594-0.09704 0.34512 0.03505 0.09331 0.10854 0.14786 0.18512 0.14786z"/>
 </g>
</svg>
