<?xml version="1.0" encoding="UTF-8"?>
<svg width="512" height="512" version="1.1" viewBox="0 0 512 512" xml:space="preserve" xmlns="http://www.w3.org/2000/svg" xmlns:cc="http://creativecommons.org/ns#" xmlns:dc="http://purl.org/dc/elements/1.1/" xmlns:rdf="http://www.w3.org/1999/02/22-rdf-syntax-ns#"><metadata><rdf:RDF><cc:Work rdf:about=""><dc:format>image/svg+xml</dc:format><dc:type rdf:resource="http://purl.org/dc/dcmitype/StillImage"/><dc:title/></cc:Work></rdf:RDF></metadata><g stroke-width="1.0051">












<path d="m425.53 184.79s-1.906-14.365-9.663-24.813c-7.757-10.448-62.484-26.991-68.517-27.862s-22.408 20.461-33.181 20.461h-58.175-58.175c-10.773 0-27.148-21.331-33.181-20.461-6.033 0.87084-60.76 17.414-68.517 27.862-7.757 10.448-9.663 24.813-9.663 24.813l120.97 53.092h137.8z" fill="#363c44"/><path d="m345.24 237.88 80.295-53.092s-1.906-14.365-9.663-24.813c-5.528-7.4466-34.909-17.987-53.522-23.745-7.411 0.86174-14.489 4.1824-19.976 9.7257l-33.684 34.029c-6.145 6.208-14.48 9.6964-23.172 9.6964h-59.037c-8.691 0-17.026-3.4884-23.172-9.6964l-33.684-34.029c-5.488-5.5443-12.565-8.864-19.976-9.7257-18.613 5.7584-47.994 16.298-53.522 23.745-7.756 10.448-9.663 24.813-9.663 24.813l120.97 53.092z" fill="#2e343a"/><path d="m256 217.01h29.519c8.691 0 17.026-3.4874 23.172-9.6964l33.684-34.029c9.334-9.4297 23.258-12.484 35.622-7.8133l33.784 12.762c28.214 10.657 49.486 34.579 56.963 64.057l40.188 158.44c10.951 43.173-8.071 88.407-46.432 110.42-2.78 1.5952-6.296 0.91125-8.29-1.6134l-68.746-86.983c-10.466-13.242-26.327-20.953-43.101-20.953h-172.72c-16.773 0-32.635 7.7113-43.101 20.953l-68.746 86.983c-1.995 2.5236-5.51 3.2076-8.29 1.6134-38.362-22.007-57.384-67.241-46.433-110.41l40.188-158.44c7.477-29.478 28.75-53.4 56.963-64.057l33.784-12.762c12.364-4.6704 26.289-1.6164 35.622 7.8133l33.684 34.029c6.146 6.209 14.481 9.6964 23.172 9.6964l29.518-1e-3" fill="#555e6b"/><path d="m508.93 400.73-40.188-158.44c-7.477-29.478-28.749-53.4-56.963-64.057l-33.784-12.762c-10.599-4.0036-22.336-2.3155-31.354 4.1845l22.707 8.577c28.214 10.657 49.486 34.579 56.963 64.057l40.188 158.44c8.603 33.918-1.301 69.102-24.541 93.303l12.249 15.499c1.995 2.5236 5.51 3.2086 8.291 1.6134 38.361-22.008 57.383-67.242 46.432-110.42z" fill="#414954"/><path d="m84.107 422.55-56.497 71.483c6.341 6.603 13.668 12.395 21.891 17.113 2.78 1.5952 6.296 0.91125 8.29-1.6134l68.746-86.983c10.466-13.242 26.327-20.953 43.101-20.953h-42.431c-16.772 0-32.634 7.7113-43.1 20.953z" fill="#414954"/><ellipse cx="256" cy="184.79" rx="9.696" ry="9.7954" fill="#49bc6e"/><path d="m276.57 245.02h-41.137c-4.204 0-7.611-3.4429-7.611-7.689 0-4.2471 3.408-7.689 7.611-7.689h41.137c4.204 0 7.611 3.4429 7.611 7.689 0 4.2461-3.407 7.689-7.611 7.689z" fill="#22a6fe"/></g><g fill="#414954"><path d="m233.05 364.44h-18.122c-4.9318 0-8.9286-3.4429-8.9286-7.689 0-4.2461 3.998-7.69 8.9286-7.69h18.122c4.9318 0 8.9286 3.4429 8.9286 7.69 0 4.2471-3.998 7.689-8.9286 7.689z" stroke-width="1.0886"/><path d="m297.07 364.44h-18.089c-4.9318 0-8.9286-3.4429-8.9286-7.689 0-4.2461 3.9968-7.69 8.9286-7.69h18.089c4.9318 0 8.9298 3.4429 8.9298 7.69 0 4.2471-3.998 7.689-8.9298 7.689z" stroke-width="1.0886"/>
















<ellipse cx="333.99" cy="295.07" rx="23.737" ry="23.534" opacity=".995" stroke-width=".24299"/></g><g><path d="m333.96 275.28c12.509 0 22.758 9.5939 23.671 21.765 0.0439-0.58431 0.0665-1.1744 0.0665-1.7696 0-12.998-10.628-23.534-23.738-23.534s-23.738 10.537-23.738 23.534c0 0.59543 0.0228 1.1855 0.0665 1.7696 0.91267-12.171 11.161-21.765 23.671-21.765z" fill="#808080" opacity=".995" stroke="#555e6b" stroke-width=".24299"/><path d="m345.61 309.19h-23.227c-1.4924 0-2.702-1.1932-2.702-2.6652v-22.91c0-1.472 1.2097-2.6652 2.702-2.6652h23.227c1.4923 0 2.702 1.1932 2.702 2.6652v22.91c2.6e-4 1.472-1.2094 2.6652-2.7018 2.6652zm-20.525-5.3305h17.823v-17.58h-17.823z" fill="#dd98f2" opacity=".995" stroke-width=".25683"/><ellipse cx="436.28" cy="295.07" rx="23.737" ry="23.534" fill="#414954" opacity=".995" stroke-width=".24299"/><path d="m436.25 275.28c12.509 0 22.758 9.5939 23.671 21.765 0.0439-0.58431 0.0665-1.1744 0.0665-1.7696 0-12.998-10.628-23.534-23.738-23.534-13.11 0-23.738 10.537-23.738 23.534 0 0.59543 0.0227 1.1855 0.0665 1.7696 0.91267-12.171 11.161-21.765 23.671-21.765z" fill="#808080" opacity=".995" stroke="#555e6b" stroke-width=".24299"/><path d="m436.28 309.19c-7.8938 0-14.315-6.3344-14.315-14.12s6.4218-14.12 14.315-14.12 14.315 6.3344 14.315 14.12-6.4218 14.12-14.315 14.12zm0-22.91c-4.914 0-8.9113 3.9431-8.9113 8.79 0 4.8466 3.9976 8.79 8.9113 8.79 4.9138 0 8.9113-3.9431 8.9113-8.79s-3.9976-8.79-8.9113-8.79z" fill="#ed55a9" opacity=".995" stroke-width=".25682"/><ellipse cx="385.14" cy="347.3" rx="23.737" ry="23.534" fill="#414954" opacity=".995" stroke-width=".24299"/><path d="m385.1 327.52c12.509 0 22.758 9.5939 23.671 21.765 0.0439-0.5843 0.0665-1.1744 0.0665-1.7696 0-12.998-10.628-23.534-23.738-23.534-13.11 0-23.738 10.537-23.738 23.534 0 0.59544 0.0227 1.1856 0.0665 1.7696 0.91266-12.171 11.161-21.765 23.671-21.765z" fill="#808080" opacity=".995" stroke="#555e6b" stroke-width=".24299"/><path d="m389.72 347.3 8.7796-8.6601c1.2662-1.2489 1.2662-3.2744 0-4.5236-1.2665-1.2489-3.3193-1.2489-4.5861 0l-8.7796 8.6601-8.7796-8.6601c-1.2661-1.2489-3.3196-1.2489-4.5861 0-1.2662 1.2489-1.2662 3.2744 0 4.5236l8.7796 8.6601-8.7796 8.6601c-1.2662 1.2489-1.2662 3.2744 0 4.5236 0.63338 0.62477 1.4632 0.93668 2.2927 0.93668 0.82983 0 1.66-0.31223 2.2927-0.93668l8.7796-8.6601 8.7796 8.6601c0.63339 0.62477 1.4632 0.93668 2.2927 0.93668 0.82983 0 1.6597-0.31223 2.2928-0.93668 1.2662-1.2489 1.2662-3.2744 0-4.5236z" fill="#697ce2" opacity=".995" stroke-width=".30821"/><ellipse cx="385.14" cy="242.83" rx="23.737" ry="23.534" fill="#414954" opacity=".995" stroke-width=".24299"/><path d="m385.1 223.05c12.509 0 22.758 9.5939 23.671 21.765 0.0439-0.5843 0.0665-1.1744 0.0665-1.7696 0-12.998-10.628-23.534-23.738-23.534-13.11 0-23.738 10.537-23.738 23.534 0 0.59544 0.0227 1.1855 0.0665 1.7696 0.91266-12.171 11.161-21.765 23.671-21.765z" fill="#808080" opacity=".995" stroke="#555e6b" stroke-width=".24299"/><path d="m397.05 256.95h-23.829c-0.85768 0-1.6503-0.5081-2.0791-1.3325-0.42895-0.82465-0.42895-1.8406 0-2.6653l11.915-22.911c0.42872-0.82463 1.2212-1.3325 2.0791-1.3325 0.85746 0 1.6504 0.50811 2.0791 1.3325l11.915 22.911c0.42873 0.82466 0.42873 1.8406 0 2.6653s-1.2216 1.3325-2.0791 1.3325zm-19.671-5.3306h15.513l-7.7567-14.915z" fill="#3ac184" opacity=".995" stroke-width=".24209"/></g><g clip-rule="evenodd" fill-rule="evenodd"><path d="m126.88 370.83c41.446 0 75.014-33.934 75.014-75.769 0-41.835-33.567-75.769-75.014-75.769-41.418 0-74.985 33.934-74.985 75.769 0 41.835 33.568 75.769 74.985 75.769zm35.509-75.769c0 19.807-15.899 35.867-35.509 35.867-19.581 0-35.48-16.059-35.48-35.867 0-19.807 15.899-35.867 35.48-35.867 19.611 0 35.509 16.059 35.509 35.867z" fill="#3e444d" stroke-width=".9972"/><path d="m126.88 330.93c19.61 0 35.509-16.059 35.509-35.867 0-19.807-15.899-35.867-35.509-35.867-19.581 0-35.48 16.059-35.48 35.867 9.83e-4 19.807 15.9 35.867 35.48 35.867z" fill="#f9f6f6" stroke-width=".9972"/><path d="m126.88 370.83c41.446 0 75.014-33.934 75.014-75.769 0-41.835-33.567-75.769-75.014-75.769-9.5334 0-18.639 1.816-27.032 5.0741 13.958 7.9574 25.119 20.297 31.713 35.145 17.383 2.3061 30.828 17.328 30.828 35.549 0 19.807-15.899 35.867-35.509 35.867h-0.45644c-8.5342 13.609-21.266 24.276-36.337 30.158 10.876 6.1986 23.435 9.7453 36.793 9.7453z" fill="#363d45"/><path d="m126.88 330.93c19.61 0 35.509-16.059 35.509-35.867 0-18.221-13.444-33.243-30.828-35.549-1.541-0.20144-3.0829-0.31669-4.6814-0.31669-4.6526 0-9.1058 0.92302-13.188 2.5656 10.675 6.1695 17.868 17.818 17.868 31.109 0 15.108-9.2486 28.024-22.321 33.3 5.0812 2.9404 10.932 4.6702 17.184 4.7574z" fill="#dddaec" stroke-width=".9972"/></g><g fill="#1de8f1" stroke-width=".28247"><path d="m324.53 19.717c-19.675-12.87-43.356-19.717-68.34-19.717h-0.43555c-24.899 0.082491-48.608 6.9301-68.283 19.717-3.0459 2.0626-5.1363 5.1975-5.658 8.6624-0.43555 3.3821 0.60877 6.8476 2.9597 9.4876 4.4398 4.9497 12.276 5.9396 17.846 2.2273 15.235-9.982 33.722-15.262 53.135-15.345h0.43555c19.501 0 37.956 5.28 53.192 15.345 5.66 3.7124 13.494 2.7228 17.847-2.2273 4.9627-5.528 3.7437-13.943-2.6986-18.15z"/><path d="m298.41 45.374c-12.45-8.0847-27.162-12.375-42.659-12.375-15.496 0-30.499 4.2901-42.862 12.375-6.2679 4.0423-7.3125 12.457-2.6983 17.985 4.0914 4.9503 11.404 6.0221 16.889 2.475 8.183-5.2797 18.573-7.9197 28.671-7.9197s20.198 2.64 28.381 7.9197c5.5718 3.5474 12.797 2.4753 16.976-2.475 4.6146-5.6099 3.3955-14.025-2.698-17.985z"/><path d="m276.21 70.371c-6.1809-2.8877-13.319-4.2901-20.458-4.2901-7.1393 0-14.568 1.4021-20.749 4.2901-4.6142 2.0626-7.2255 6.5171-7.2255 11.055 0 2.7228 0.9564 5.5272 2.9586 7.8375 3.8311 4.4548 10.651 5.8577 15.874 3.3821 2.6994-1.2371 5.9206-1.8973 9.1414-1.8973 3.2212 0 6.4423 0.6602 9.1414 1.8973 5.2233 2.4753 11.753 1.0724 15.584-3.3821 5.3098-6.1871 3.2206-15.51-4.2666-18.892z"/><path d="m255.75 98.998c-7.2264 0-13.349 5.5272-13.349 12.375 0 6.8476 6.1225 12.375 13.349 12.375 7.2263 0 13.059-5.5272 13.059-12.375 0-6.8476-5.8321-12.375-13.059-12.375z"/></g><g fill="#1bd9de" stroke-width=".28247"><path d="m268.81 111.37c0 6.8476-5.8324 12.375-13.059 12.375v-24.749c7.2266 0 13.059 5.5274 13.059 12.375z"/><path d="m280.48 89.264c-3.8311 4.4548-10.36 5.8577-15.584 3.3821-2.6994-1.2371-5.9206-1.8973-9.1414-1.8973v-24.667c7.1393 0 14.278 1.4021 20.458 4.2901 7.4872 3.3819 9.5764 12.705 4.2669 18.892z"/><path d="m301.11 63.359c-4.1784 4.9503-11.404 6.0221-16.976 2.475-8.183-5.2797-18.283-7.9197-28.381-7.9197v-24.915c15.497 0 30.209 4.2901 42.659 12.375 6.0935 3.9598 7.3125 12.375 2.6983 17.985z"/><path d="m327.23 37.867c-4.3528 4.9497-12.187 5.9396-17.847 2.2273-15.235-10.064-33.691-15.345-53.192-15.345h-0.43553v-24.75h0.43553c24.985 0 48.665 6.8476 68.341 19.717 6.4423 4.2076 7.6613 12.622 2.6983 18.15z"/></g></svg>
