<?xml version="1.0" encoding="UTF-8"?>
<svg width="24" height="24" version="1.1" viewBox="0 0 24 24" xml:space="preserve" xmlns="http://www.w3.org/2000/svg" xmlns:cc="http://creativecommons.org/ns#" xmlns:dc="http://purl.org/dc/elements/1.1/" xmlns:rdf="http://www.w3.org/1999/02/22-rdf-syntax-ns#"><metadata><rdf:RDF><cc:Work rdf:about=""><dc:format>image/svg+xml</dc:format><dc:type rdf:resource="http://purl.org/dc/dcmitype/StillImage"/><dc:title/></cc:Work></rdf:RDF></metadata><g stroke-width=".045644">
<path d="m11.994 8.12e-7c-1.3092 0-2.3704 1.1193-2.3704 2.5 0.0023 0.11995 0.01271 0.23962 0.03129 0.35798 0.03418 0.24773 0.23676 0.43059 0.4741 0.42801 0.04524-4.69e-5 0.09023-0.0068 0.13369-0.020016 1.1328-0.35348 2.3385-0.35348 3.4713 0 0.13472 0.035156 0.27721 0.00788 0.39161-0.075 0.11685-0.084281 0.1949-0.21628 0.21525-0.36398 0.01702-0.10847 0.02653-0.21806 0.02845-0.32798-5.37e-4 -1.3807-1.0623-2.4996-2.3714-2.499-0.0013 0-0.0025 0-0.0038 6e-7z" fill="#f19933"/>
<path d="m14.839 20h-5.6891c-0.26183 0-0.47411 0.22388-0.47411 0.50002 0 1.933 1.4858 3.5 3.3186 3.5s3.3186-1.567 3.3186-3.5c0-0.27619-0.21223-0.50002-0.4741-0.50002z" fill="#f19933"/>
<path d="m20.832 18.209c-0.14983-0.34898-0.3385-0.73898-0.54708-1.169-1.283-2.2921-2.0136-4.881-2.1277-7.54 0-3.963-1.9912-6.871-5.0709-7.408-1.7971-0.30464-3.629 0.25856-4.9893 1.534-1.5059 1.3864-2.3413 3.413-2.2756 5.52-0.039249 2.7856-0.76883 5.5118-2.1163 7.908-0.20387 0.42398-0.3897 0.81-0.53762 1.154-0.4273 0.99389-0.00977 2.165 0.93265 2.6157 0.24579 0.11756 0.51273 0.1777 0.78261 0.17634h14.238c1.0347 0.0033 1.8761-0.87876 1.8792-1.9701 8e-4 -0.28308-0.05609-0.56302-0.16681-0.82092h-8.89e-4z" fill="#ed5583"/>
<path d="m5.6728 19c-0.26183 0-0.47411-0.22388-0.47406-0.50002 0-0.07776 0.017199-0.15445 0.05022-0.22397l0.15267-0.31598c1.4161-2.5785 2.2145-5.4824 2.3259-8.46 0-2.537 1.1179-5.5 4.2668-5.5 0.26183 0 0.47411 0.22387 0.47411 0.50001 0 0.27614-0.21228 0.50001-0.47411 0.50001-3.0797 0-3.3186 3.444-3.3186 4.5-0.10583 3.1367-0.9403 6.1979-2.4302 8.915l-0.14792 0.309c-0.080541 0.16941-0.24503 0.27628-0.42481 0.27591z" fill="#ffa4d9"/>















</g></svg>
