<?xml version="1.0" encoding="UTF-8"?>
<svg width="512" height="512" enable-background="new 0 0 512 512" version="1.1" viewBox="0 0 512 512" xmlns="http://www.w3.org/2000/svg" xmlns:cc="http://creativecommons.org/ns#" xmlns:dc="http://purl.org/dc/elements/1.1/" xmlns:rdf="http://www.w3.org/1999/02/22-rdf-syntax-ns#">
 <metadata>
  <rdf:RDF>
   <cc:Work rdf:about="">
    <dc:format>image/svg+xml</dc:format>
    <dc:type rdf:resource="http://purl.org/dc/dcmitype/StillImage"/>
    <dc:title/>
   </cc:Work>
  </rdf:RDF>
 </metadata>
 <circle id="XMLID_3577_" cx="256" cy="256" r="256" fill="#324a5e"/>
 <path id="XMLID_2862_" d="m512 256c0-19.879-2.266-39.229-6.553-57.806l-73.513-73.513-36.15 42.877c-74.087 32.783-116.09 49.685-155.36 58.515l-42.501-41.898-139 128.19 199.6 199.6c140.22-1.361 253.47-115.43 253.47-255.97z" fill="#213949"/>
 <path id="XMLID_960_" d="m174.06 215.19v81.617s101.2 10.781 242.76 77.025v-235.67c-141.57 66.245-242.76 77.025-242.76 77.025z" fill="#fff"/>
 <path id="XMLID_3318_" d="m416.82 256v117.83c-7.12-3.33-14.13-6.52-21.04-9.57-89.37-39.55-160.36-56.57-196.2-63.36-13.59-2.58-22.13-3.69-24.7-4-0.54-0.06-0.82-0.09-0.82-0.09v-40.81z" fill="#fff5ca"/>
 <circle id="XMLID_3113_" transform="rotate(-80.792)" cx="-235" cy="149.91" r="76.334" fill="#e03b5a" stroke-width=".99988"/>
 <path id="XMLID_3315_" d="m186.76 256c0 15.05-4.35 29.08-11.87 40.9-4.37 6.87-9.81 13-16.08 18.15-13.17 10.81-30.02 17.29-48.39 17.29-42.17 0-76.35-34.18-76.35-76.34z" fill="#ce1b42"/>
 <path id="XMLID_408_" d="m186.75 177.64h-15.127c-7.084 0-12.826 5.743-12.826 12.826v131.07c0 7.084 5.743 12.826 12.826 12.826h15.127c7.084 0 12.826-5.743 12.826-12.826v-131.07c1e-3 -7.083-5.742-12.826-12.826-12.826z" fill="#ff637b"/>
 <path id="XMLID_1725_" d="m395.78 124.68h36.15v262.64h-36.15z" fill="#fff5ca"/>
 <path id="XMLID_3313_" d="m395.78 256h36.15v131.32h-36.15z" fill="#ffe767"/>
 <path id="XMLID_3316_" d="m199.58 256v65.53c0 7.09-5.75 12.83-12.83 12.83h-15.13c-7.08 0-12.82-5.74-12.82-12.83v-65.53z" fill="#e03b5a"/>
</svg>
