<?xml version="1.0" encoding="UTF-8"?>
<svg width="1280" height="720" version="1.1" viewBox="0 0 1280 720" xml:space="preserve" xmlns="http://www.w3.org/2000/svg" xmlns:cc="http://creativecommons.org/ns#" xmlns:dc="http://purl.org/dc/elements/1.1/" xmlns:rdf="http://www.w3.org/1999/02/22-rdf-syntax-ns#"><metadata><rdf:RDF><cc:Work rdf:about=""><dc:format>image/svg+xml</dc:format><dc:type rdf:resource="http://purl.org/dc/dcmitype/StillImage"/><dc:title/></cc:Work></rdf:RDF></metadata>















<rect width="1280" height="720" fill="#fff" stroke-width="3.3926"/><g transform="translate(384.06 104.06)"><path d="m415.98 291.93c0-6.639-5.358-11.997-11.998-11.997-6.639 0-11.997 5.358-11.997 11.997 0 6.64 5.358 11.997 11.997 11.997 6.64 0 11.998-5.357 11.998-11.997zm-11.998 31.993c-17.676 0-31.992-14.317-31.992-31.993 0-17.675 14.316-31.992 31.992-31.992 11.842 0 22.151 6.405 27.674 15.996h0.086c2.718 4.718 4.232 10.162 4.232 15.996 0 9.6-4.232 18.16-10.872 23.995-5.608 4.959-13.044 7.998-21.12 7.998z" fill="#5c9eff"/><path d="m379.99 291.93c0-16.512 12.544-29.931 28.595-31.648-1.507-0.219-3.038-0.344-4.601-0.344-17.676 0-31.992 14.317-31.992 31.992 0 17.676 14.316 31.993 31.992 31.993 1.422 0 2.781-0.203 4.155-0.391-15.84-1.913-28.149-15.246-28.149-31.602z" fill="#94c1ff"/><path d="m427.98 291.93c0 16.512-12.543 29.931-28.594 31.649 1.507 0.219 3.038 0.344 4.6 0.344 17.676 0 31.992-14.317 31.992-31.993 0-17.675-14.316-31.992-31.992-31.992-1.421 0-2.78 0.203-4.155 0.391 15.841 1.913 28.149 15.246 28.149 31.601z" fill="#2287ff"/><path d="m403.98 279.93c6.64 0 11.998 5.358 11.998 11.997 0 6.64-5.358 11.997-11.998 11.997-6.639 0-11.997-5.357-11.997-11.997 0-6.638 5.358-11.997 11.997-11.997z" fill="#d7e9ff"/><path d="m115.97 307.93v7.999h-42.868c6.639-5.835 10.876-14.396 10.876-23.995 0-5.834-1.52-11.278-4.237-15.996h58.303c-13.357 8.24-22.074 18.8-22.074 31.992z" fill="#94c1ff"/><path d="m3.999 227.95v-15.996h63.985v31.992l-15.997 15.996c-17.675 0-31.993 14.317-31.993 31.992l-15.995-15.996z" fill="#656d78"/><path d="m3.999 227.95v-15.996h63.985v31.992l-15.997 15.996c-17.675 0-31.993 14.317-31.993 31.992l-15.995-15.996z" fill="#94c1ff"/><rect x="3.999" y="211.95" width="63.985" height="7.998" fill="#d7e9ff"/><path d="m63.985 291.93c0-6.639-5.358-11.997-11.998-11.997s-11.997 5.358-11.997 11.997c0 6.64 5.358 11.997 11.997 11.997s11.998-5.357 11.998-11.997zm-11.998 31.993c-17.675 0-31.993-14.317-31.993-31.993 0-17.675 14.317-31.992 31.993-31.992 11.837 0 22.155 6.405 27.673 15.996h0.082c2.718 4.718 4.237 10.162 4.237 15.996 0 9.6-4.237 18.16-10.876 23.995-5.6 4.959-13.039 7.998-21.116 7.998z" fill="#5c9eff"/><path d="m27.993 291.93c0-16.512 12.54-29.931 28.595-31.648-1.503-0.219-3.039-0.344-4.601-0.344-17.675 0-31.993 14.317-31.993 31.992 0 17.676 14.317 31.993 31.993 31.993 1.417 0 2.781-0.203 4.151-0.391-15.835-1.913-28.145-15.246-28.145-31.602z" fill="#94c1ff"/><path d="m75.982 291.93c0 16.512-12.54 29.931-28.595 31.649 1.503 0.219 3.038 0.344 4.6 0.344 17.675 0 31.993-14.317 31.993-31.993 0-17.675-14.317-31.992-31.993-31.992-1.417 0-2.781 0.203-4.151 0.391 15.836 1.913 28.146 15.246 28.146 31.601z" fill="#2287ff"/><path d="m51.987 279.93c6.639 0 11.998 5.358 11.998 11.997 0 6.64-5.358 11.997-11.998 11.997s-11.997-5.357-11.997-11.997c0-6.638 5.358-11.997 11.997-11.997z" fill="#d7e9ff"/><path d="m435.9 259.94c34.953 3.358 55.987 7.998 55.987 7.998l-7.998 7.998v15.996h-23.994l-32.477-32.469z" fill="#d7e9ff"/><path d="m403.98 258.1 23.433 1.358 32.477 32.469h47.988v23.995h-82.855c6.64-5.835 10.872-14.396 10.872-23.995 0-17.675-14.316-31.992-31.992-31.992z" fill="#94c1ff"/><polygon points="161.48 315.92 309.21 292.57 355.92 315.92" fill="#94c1ff"/><path d="m371.91 256.26 32.07 1.844-0.078 1.835c-14.395 0-26.556 9.521-30.555 22.558l-64.142 10.075-147.73 23.354h-45.509v-7.999c0-13.192 8.717-23.752 22.073-31.992 25.037-15.512 66.547-22.791 98.059-23.83 2.718-0.078 5.28-0.164 7.838-0.164 19.194 0 37.991 0.32 55.987 0.883 13.762 0.398 27.196 0.961 39.99 1.522 11.124 0.633 21.761 1.274 31.994 1.914z" fill="#d7e9ff"/><path d="m67.984 243.94h7.998s47.988-31.992 111.97-31.992h39.99v24.08l7.998-0.086v7.998l0.16 8.162c-31.512 1.039-73.021 8.318-98.059 23.83h-58.384c-5.519-9.591-15.836-15.996-27.673-15.996z" fill="#d7e9ff"/><path d="m187.96 211.95c-63.985 0-111.97 31.992-111.97 31.992h-7.998l-15.997 15.996c2.917 0.547 5.741 1.406 8.439 2.569l9.931-10.567h5.624s47.988-31.992 111.97-31.992h39.99v-7.998z" fill="#fff"/><g fill="#116fff"><path d="m211.95 311.92c-1.934 0-3.636-1.405-3.944-3.374-0.348-2.179 1.144-4.233 3.323-4.577l151.96-23.994c2.172-0.336 4.233 1.148 4.577 3.327 0.344 2.18-1.148 4.233-3.327 4.577l-151.96 23.994c-0.211 0.032-0.422 0.047-0.629 0.047z"/><path d="m115.97 311.92c-2.21 0-3.999-1.788-3.999-3.999 0-45.325 88.913-59.985 131.97-59.985 41.248 0 84.395 1.469 128.24 4.366 2.203 0.148 3.874 2.054 3.726 4.257-0.148 2.202-2.046 3.944-4.257 3.726-43.661-2.89-86.636-4.351-127.7-4.351-49.996 0-123.97 16.52-123.97 51.987 0 2.211-1.788 3.999-3.999 3.999z"/><path d="m483.88 287.93c-2.21 0-3.999-1.788-3.999-3.999v-7.998c0-1.062 0.422-2.077 1.172-2.827l2.671-2.672c-8.951-1.616-25.744-4.326-48.207-6.514-2.203-0.219-3.812-2.172-3.593-4.374 0.203-2.194 2.218-3.749 4.357-3.593 34.773 3.39 55.581 7.881 56.448 8.076 1.429 0.312 2.569 1.375 2.991 2.78 0.406 1.406 0.016 2.921-1.016 3.952l-6.826 6.827v6.342c1e-3 2.212-1.788 4-3.998 4z"/><path d="m459.89 295.93c-1.023 0-2.047-0.391-2.827-1.172l-15.997-15.996c-1.562-1.562-1.562-4.092 0-5.654s4.093-1.562 5.655 0l15.996 15.996c1.562 1.562 1.562 4.093 0 5.654-0.781 0.782-1.804 1.172-2.827 1.172z"/><path d="m355.92 319.92h-271.94c-2.21 0-3.999-1.788-3.999-3.998 0-2.211 1.789-4 3.999-4h254.99l-16.84-8.42c-1.976-0.991-2.772-3.39-1.789-5.365 0.984-1.969 3.391-2.789 5.366-1.789l31.993 15.996c1.663 0.828 2.53 2.695 2.101 4.499-0.422 1.805-2.03 3.077-3.889 3.077z"/><path d="m75.986 247.94c-1.293 0-2.562-0.625-3.332-1.781-1.226-1.835-0.73-4.319 1.109-5.545 2-1.336 49.738-32.664 114.19-32.664h39.99c2.207 0 3.999 1.788 3.999 3.999l8e-3 20.042 3.94-0.047c1.102 0.031 2.101 0.406 2.858 1.156 0.762 0.749 1.191 1.772 1.191 2.843v7.998c0 2.21-1.789 3.999-3.999 3.999s-3.999-1.789-3.999-3.999v-3.944l-3.94 0.047c-1.137-0.078-2.105-0.406-2.858-1.156-0.762-0.75-1.191-1.772-1.191-2.843l-8e-3 -20.097h-35.991c-62.056 0-109.29 31.008-109.76 31.32-0.682 0.453-1.452 0.672-2.213 0.672z"/><path d="m84.863 261.25c-1.305 0-2.582-0.641-3.351-1.812-1.21-1.843-0.695-4.327 1.156-5.529 1.867-1.227 46.403-29.962 105.29-29.962h23.998c2.21 0 3.999 1.788 3.999 3.999 0 2.21-1.789 3.999-3.999 3.999h-23.998c-56.526 0-99.121 27.478-100.91 28.649-0.676 0.445-1.438 0.656-2.187 0.656z"/><path d="m51.987 327.92c-19.847 0-35.992-16.145-35.992-35.991s16.146-35.991 35.992-35.991c19.847 0 35.992 16.145 35.992 35.991s-16.144 35.991-35.992 35.991zm0-63.984c-15.434 0-27.994 12.56-27.994 27.993 0 15.435 12.56 27.993 27.994 27.993s27.994-12.559 27.994-27.993c0-15.433-12.56-27.993-27.994-27.993z"/><path d="m51.987 307.93c-8.822 0-15.996-7.178-15.996-15.996s7.174-15.996 15.996-15.996 15.997 7.178 15.997 15.996-7.174 15.996-15.997 15.996zm0-23.994c-4.409 0-7.998 3.585-7.998 7.998s3.589 7.998 7.998 7.998 7.999-3.585 7.999-7.998-3.589-7.998-7.999-7.998z"/><path d="m403.9 327.92c-19.847 0-35.991-16.145-35.991-35.991s16.144-35.991 35.991-35.991c19.848 0 35.992 16.145 35.992 35.991s-16.145 35.991-35.992 35.991zm0-63.984c-15.434 0-27.993 12.56-27.993 27.993 0 15.435 12.56 27.993 27.993 27.993s27.994-12.559 27.994-27.993c0-15.433-12.561-27.993-27.994-27.993z"/><path d="m403.9 307.93c-8.826 0-15.996-7.178-15.996-15.996s7.17-15.996 15.996-15.996 15.996 7.178 15.996 15.996-7.17 15.996-15.996 15.996zm0-23.994c-4.404 0-7.998 3.585-7.998 7.998s3.594 7.998 7.998 7.998c4.405 0 7.998-3.585 7.998-7.998s-3.593-7.998-7.998-7.998z"/><path d="m11.997 287.93c-1.023 0-2.046-0.391-2.827-1.172l-7.998-7.998c-0.75-0.75-1.172-1.765-1.172-2.827v-63.984c0-2.211 1.789-3.999 3.999-3.999h63.985c2.21 0 3.999 1.788 3.999 3.999v31.992c0 1.062-0.422 2.077-1.172 2.827l-7.998 7.998c-1.562 1.562-4.093 1.562-5.655 0s-1.562-4.093 0-5.654l6.827-6.827v-26.337h-55.987v58.33l6.827 6.826c1.562 1.562 1.562 4.093 0 5.654-0.782 0.782-1.805 1.172-2.828 1.172z"/><path d="m507.88 319.92h-63.984c-2.211 0-3.999-1.788-3.999-3.998 0-2.211 1.788-4 3.999-4h63.984c2.211 0 3.999 1.789 3.999 4 0 2.21-1.788 3.998-3.999 3.998z"/><path d="m507.88 319.92c-2.21 0-3.999-1.788-3.999-3.998v-23.995c0-2.21 1.789-3.999 3.999-3.999 2.211 0 3.999 1.789 3.999 3.999v23.995c0 2.21-1.788 3.998-3.999 3.998z"/><path d="m507.88 295.93h-47.988c-2.211 0-3.999-1.788-3.999-3.999 0-2.21 1.788-3.999 3.999-3.999h47.988c2.211 0 3.999 1.789 3.999 3.999 0 2.211-1.788 3.999-3.999 3.999z"/><path d="m123.97 279.93h-31.992c-2.21 0-3.999-1.789-3.999-3.999s1.789-3.999 3.999-3.999h31.992c2.21 0 3.999 1.789 3.999 3.999s-1.788 3.999-3.999 3.999z"/><path d="m275.93 287.93c-2.21 0-3.999-1.788-3.999-3.999v-15.996c0-2.21 1.789-3.999 3.999-3.999 2.211 0 3.999 1.789 3.999 3.999v15.996c0 2.211-1.788 3.999-3.999 3.999z"/><path d="m299.93 256.81c-2.211 0-4-1.789-4-3.999v-16.863c0-2.211 1.789-3.999 4-3.999 2.21 0 3.998 1.788 3.998 3.999v16.863c0 2.21-1.788 3.999-3.998 3.999z"/><path d="m307.93 239.94h-15.996c-2.211 0-4-1.789-4-3.999 0-2.211 1.789-3.999 4-3.999h15.996c2.21 0 3.999 1.788 3.999 3.999 0 2.21-1.789 3.999-3.999 3.999z"/><path d="m339.92 258.43c-2.211 0-3.999-1.788-3.999-3.999v-2.491c0-2.21 1.788-3.999 3.999-3.999 2.21 0 3.999 1.789 3.999 3.999v2.491c0 2.211-1.789 3.999-3.999 3.999z"/><path d="m35.991 231.94h-31.992c-2.21 0-3.999-1.789-3.999-3.999 0-2.211 1.789-3.999 3.999-3.999h31.993c2.21 0 3.999 1.788 3.999 3.999-1e-3 2.21-1.789 3.999-4 3.999z"/><path d="m443.9 223.95h-63.985c-2.21 0-3.999-1.789-3.999-3.999 0-2.211 1.789-3.999 3.999-3.999h63.985c2.21 0 3.999 1.788 3.999 3.999 0 2.21-1.789 3.999-3.999 3.999z"/><path d="m363.91 223.95h-7.998c-2.211 0-3.999-1.789-3.999-3.999 0-2.211 1.788-3.999 3.999-3.999h7.998c2.211 0 3.999 1.788 3.999 3.999 0 2.21-1.788 3.999-3.999 3.999z"/><path d="m347.92 191.96h-103.98c-2.21 0-3.999-1.789-3.999-3.999 0-2.211 1.789-3.999 3.999-3.999h103.98c2.211 0 3.999 1.788 3.999 3.999 0 2.21-1.789 3.999-3.999 3.999z"/><path d="m379.91 191.96h-15.996c-2.211 0-3.999-1.789-3.999-3.999 0-2.211 1.788-3.999 3.999-3.999h15.996c2.211 0 3.999 1.788 3.999 3.999 0 2.21-1.788 3.999-3.999 3.999z"/></g></g>















</svg>
