<?xml version="1.0" encoding="UTF-8"?>
<svg width="384pt" height="384pt" version="1.1" viewBox="0 0 384 384" xmlns="http://www.w3.org/2000/svg" xmlns:cc="http://creativecommons.org/ns#" xmlns:dc="http://purl.org/dc/elements/1.1/" xmlns:rdf="http://www.w3.org/1999/02/22-rdf-syntax-ns#">
 <metadata>
  <rdf:RDF>
   <cc:Work rdf:about="">
    <dc:format>image/svg+xml</dc:format>
    <dc:type rdf:resource="http://purl.org/dc/dcmitype/StillImage"/>
    <dc:title/>
   </cc:Work>
  </rdf:RDF>
 </metadata>
 <g stroke-width=".75">
  <path d="m0 192c0 106.04 85.96 192 192 192 106.04 0 192-85.96 192-192 0-106.04-85.96-192-192-192-106.04 0-192 85.96-192 192z" fill="#ff633e"/>
  <path d="m158.28 381.04c-83.938-14.871-149.03-84.278-157.37-170.3l66.152-66.152 68.555-21.401 29.25-29.388 126.44 154.21z" fill="#e70020"/>
  <path d="m164.87 93.803v196.39h7.3213c38.13 0 74.071-9.8818 101.21-27.832 13.479-8.9121 24.105-19.359 31.582-31.049 7.9277-12.401 11.95-25.626 11.95-39.316 0-13.69-4.0225-26.915-11.953-39.316-7.4766-11.689-18.1-22.137-31.579-31.049-27.141-17.95-63.085-27.832-101.21-27.832z" fill="#c8c6cd"/>
 </g>
 <g transform="matrix(-.75 0 0 .75 384 0)" fill="#ffc473">
  <path d="m422.58 192.79-95.617-29.848-5.8164 18.633 101.43 31.664z"/>
  <path d="m422.58 242.23-95.617-29.852-5.8164 18.637 101.43 31.664z"/>
  <path d="m422.58 291.67-95.617-29.848-5.8164 18.633 101.43 31.664z"/>
  <path d="m422.58 341.11-95.617-29.852-5.8164 18.637 101.43 31.664z"/>
 </g>
 <g stroke-width=".75">
  <path d="m164.87 192v98.197h7.3213c38.13 0 74.071-9.8818 101.21-27.832 13.479-8.9121 24.105-19.359 31.582-31.049 7.9277-12.401 11.95-25.626 11.95-39.316z" fill="#aeadb3"/>
  <path d="m164.87 93.803v196.39h7.3213c12.615 0 24.99-1.0869 36.888-3.1875v-190.02c-11.897-2.0977-24.272-3.1875-36.888-3.1875z" fill="#ffaa20"/>
  <path d="m164.87 192v98.197h7.3213c12.615 0 24.99-1.0869 36.888-3.1875v-95.01z" fill="#ff8900"/>
 </g>
</svg>
