<?xml version="1.0" encoding="UTF-8"?>
<svg width="24" height="24" version="1.1" viewBox="0 0 24 24" xml:space="preserve" xmlns="http://www.w3.org/2000/svg" xmlns:cc="http://creativecommons.org/ns#" xmlns:dc="http://purl.org/dc/elements/1.1/" xmlns:rdf="http://www.w3.org/1999/02/22-rdf-syntax-ns#"><metadata><rdf:RDF><cc:Work rdf:about=""><dc:format>image/svg+xml</dc:format><dc:type rdf:resource="http://purl.org/dc/dcmitype/StillImage"/><dc:title/></cc:Work></rdf:RDF></metadata><g fill="#ffb427" stroke-width=".048149">
<path d="m12 2.9043c-0.2049 0-0.37093-0.15741-0.37093-0.35156v-2.2012c0-0.19416 0.16603-0.35156 0.37093-0.35156s0.37093 0.15741 0.37093 0.35156v2.2012c0 0.1942-0.16603 0.35156-0.37093 0.35156z"/><path d="m3.777 19.519c-0.09491 0-0.18987-0.03431-0.26232-0.10298-0.14486-0.1373-0.14486-0.35991 0-0.49716l1.6422-1.5565c0.14491-0.1373 0.37974-0.1373 0.5246 0 0.14486 0.1373 0.14486 0.35991 0 0.49716l-1.6422 1.5565c-0.07241 0.06863-0.16736 0.10298-0.26227 0.10298z"/><path d="m18.581 5.4878c-0.09496 0-0.18987-0.034313-0.26232-0.10298-0.14486-0.1373-0.14486-0.35991 0-0.49716l1.6422-1.5565c0.14496-0.1373 0.37978-0.1373 0.5246 0 0.14486 0.1373 0.14486 0.35991 0 0.49716l-1.6422 1.5565c-0.07241 0.068672-0.16736 0.10298-0.26227 0.10298z"/><path d="m5.4192 5.4878c-0.09496 0-0.18987-0.034313-0.26232-0.10298l-1.6422-1.5564c-0.14486-0.1373-0.14486-0.35991 0-0.49716 0.14491-0.1373 0.37974-0.1373 0.5246 0l1.6422 1.5565c0.14486 0.1373 0.14486 0.35991 0 0.49716-0.07241 0.068625-0.16736 0.10294-0.26227 0.10294z"/><path d="m20.223 19.519c-0.09491 0-0.18987-0.03431-0.26232-0.10298l-1.6422-1.5565c-0.14486-0.1373-0.14486-0.35991 0-0.49716 0.14491-0.1373 0.37974-0.1373 0.5246 0l1.6422 1.5565c0.14486 0.1373 0.14486 0.35991 0 0.49716-0.07241 0.06863-0.16736 0.10298-0.26227 0.10298z"/><path d="m2.6934 11.725h-2.3225c-0.2049 0-0.37093-0.15741-0.37093-0.35156 0-0.19416 0.16603-0.35156 0.37093-0.35156h2.3225c0.2049 0 0.37093 0.1574 0.37093 0.35156 0 0.19416-0.16608 0.35156-0.37093 0.35156z"/><path d="m23.629 11.725h-2.3224c-0.2049 0-0.37093-0.15741-0.37093-0.35156 0-0.19416 0.16603-0.35156 0.37093-0.35156h2.3224c0.2049 0 0.37093 0.1574 0.37093 0.35156 0 0.19416-0.16603 0.35156-0.37093 0.35156z"/></g><g stroke-width=".048149"><path d="m9.0514 19.314h5.8989c0.14491 0 0.26445-0.10429 0.27073-0.23686 0.08828-1.8679 0.76709-3.6816 1.9996-5.1783 0.82441-1.0012 1.3132-2.247 1.3132-3.5975 0-3.3183-2.9506-6.0055-6.5805-5.9821-3.5829 0.023156-6.4972 2.7203-6.4862 6.001 0.0045 1.3192 0.47529 2.5377 1.2694 3.5248 1.2294 1.5282 1.9576 3.3421 2.0442 5.2311 6e-3 0.13298 0.12533 0.23789 0.27068 0.23789z" fill="#ffde3e"/>

<path d="m11.953 4.3193c-0.19556 0.00127-0.38894 0.010969-0.58014 0.027797 3.3105 0.29217 5.8988 2.8464 5.8988 5.9543 0 1.3505-0.48879 2.5964-1.3132 3.5976-1.2325 1.4967-1.9113 3.3105-1.9995 5.1783-0.0063 0.13256-0.12577 0.23686-0.27073 0.23686h1.2619c0.14491 0 0.26445-0.10429 0.27073-0.23686 0.08828-1.8679 0.76709-3.6816 1.9995-5.1783 0.82441-1.0012 1.3132-2.247 1.3132-3.5976 0-3.3182-2.9506-6.0055-6.5805-5.9821z" fill="#fcd400"/><path d="m14.247 12.635c-0.0771-0.05508-0.16895-0.08423-0.26554-0.08423-0.06118 0-0.12058 0.01177-0.17646 0.03497l-0.80344 0.33277-0.82822-0.33431c-0.11919-0.04809-0.25916-0.04331-0.37449 0.01298l-0.68509 0.33441-0.93025-0.35091c-0.14278-0.05419-0.31232-0.03173-0.43493 0.0585-0.1227 0.0907-0.18631 0.23794-0.16593 0.38428 2.48e-4 0.0018 5.44e-4 0.0037 7.92e-4 0.0055l0.81511 5.2292h0.74998l-0.75467-4.8413 0.60249 0.22725c0.09966 0.03763 0.21158 0.03244 0.30698-0.01411l0.70952-0.34631 0.84533 0.3412c0.09392 0.03797 0.2003 0.03744 0.29383-0.0013l0.45244-0.18741-0.75161 4.8219h0.74998l0.8157-5.2335c0.02127-0.14944-0.04436-0.29869-0.17152-0.38958z" fill="#fcd400"/>
<path d="m13.665 18.076h-3.3292c-0.08309 0-0.1505 0.06384-0.1505 0.14264v1.1893h3.6302v-1.1893c0-0.0788-0.06736-0.14264-0.15045-0.14264z" fill="#d96b37"/>
<path d="m13.665 18.076h-1.1114v1.3319h1.2619v-1.1893c-4.9e-5 -0.07875-0.06741-0.14259-0.1505-0.14259z" fill="#b14418"/>
<path d="m13.738 23.682c-1.1154 0.42361-2.3601 0.42361-3.4754 0-0.47539-0.18052-0.78702-0.61706-0.78702-1.1025v-3.2657h5.0495v3.2657c0 0.48539-0.31163 0.92194-0.78702 1.1025z" fill="#ffb427"/>
<path d="m13.263 19.314v3.2657c0 0.48539-0.31163 0.92194-0.78702 1.1025-0.35842 0.13612-0.73024 0.22791-1.1068 0.27652 0.79523 0.1027 1.6117 0.01092 2.3686-0.27652 0.47539-0.18052 0.78702-0.61706 0.78702-1.1025v-3.2657z" fill="#ff9d00"/>

<path d="m14.448 22.033h-4.8961c-0.02646 0-0.05208 0.0034-0.07666 0.0091v0.53738c0 0.01847 0.0013 0.03674 0.0022 0.05508 0.02394 0.0054 0.04881 0.0085 0.07448 0.0085h4.8961c0.02567 0 0.05054-0.0031 0.07448-0.0085 8.91e-4 -0.01833 0.0022-0.03661 0.0022-0.05508v-0.53738c-0.02468-0.0058-0.05025-0.0091-0.07676-0.0091z" fill="#ff8b00"/><rect x="9.4757" y="20.508" width="5.0496" height=".61031" fill="#ff8b00"/><rect x="13.263" y="20.508" width="1.2619" height=".61031" fill="#ff6900"/><path d="m13.263 22.033v0.54647c0 0.02133-0.0013 0.04247-0.0025 0.06361h1.1877c0.02567 0 0.05054-0.0031 0.07448-0.0085 8.91e-4 -0.01833 0.0022-0.03661 0.0022-0.05508v-0.53738c-0.02463-0.0057-0.0502-0.0091-0.07671-0.0091z" fill="#ff6900"/>















</g></svg>
