<?xml version="1.0" encoding="UTF-8"?>
<svg width="512" height="512" enable-background="new 0 0 512 512" version="1.1" viewBox="0 0 512 512" xml:space="preserve" xmlns="http://www.w3.org/2000/svg" xmlns:cc="http://creativecommons.org/ns#" xmlns:dc="http://purl.org/dc/elements/1.1/" xmlns:rdf="http://www.w3.org/1999/02/22-rdf-syntax-ns#"><metadata><rdf:RDF><cc:Work rdf:about=""><dc:format>image/svg+xml</dc:format><dc:type rdf:resource="http://purl.org/dc/dcmitype/StillImage"/><dc:title/></cc:Work></rdf:RDF></metadata>
<circle cx="256" cy="256" r="256" fill="#4bb9ec"/><path d="m84.852 299.63 209.51 209.51c80.781-12.14 149.21-62.019 186.74-131.12l-124.55-124.55z" fill="#0095ff"/><path d="m231.91 256c0 43.109 23.025 80.618 55.723 90.775l178.5 55.448c28.901-41.456 45.863-91.855 45.863-146.22s-16.962-104.77-45.863-146.22l-178.5 55.448c-32.697 10.157-55.723 47.666-55.723 90.775z" fill="#ffda00"/><path d="m231.92 255.9c0 0.032-2e-3 0.063-2e-3 0.095 0 43.109 23.025 80.618 55.723 90.775l178.5 55.448c28.901-41.456 45.863-91.855 45.863-146.22 0-0.032-1e-3 -0.063-1e-3 -0.095z" fill="#ffb000"/><path d="m299.36 332.99c0 15.697-14.821 27.169-30.016 23.233l-158.01-40.919c-25.624-6.635-43.667-31.14-43.667-59.303s18.044-52.667 43.667-59.303l158.01-40.919c15.196-3.935 30.016 7.536 30.016 23.233z" fill="#afb4c8"/><path d="m67.666 255.9c0 0.032-2e-3 0.063-2e-3 0.095 0 28.163 18.044 52.667 43.667 59.303l158.01 40.919c15.196 3.935 30.016-7.537 30.016-23.233v-77.083h-231.7z" fill="#9196aa"/>















</svg>
